<?xml version="1.0" encoding="UTF-8"?>
<!DOCTYPE svg PUBLIC "-//W3C//DTD SVG 1.1//EN" "http://www.w3.org/Graphics/SVG/1.1/DTD/svg11.dtd">
<svg version="1.1" xmlns="http://www.w3.org/2000/svg" xmlns:xlink="http://www.w3.org/1999/xlink" x="0" y="0" width="732" height="524" viewBox="0, 0, 732, 524">
  <defs>
    <clipPath id="Clip_1">
      <path d="M-0,2 L731.148,2 L731.148,524 L-0,524 z"/>
    </clipPath>
  </defs>
  <g id="Layer_1">
    <g clip-path="url(#Clip_1)">
      <path d="M453.716,117.136 C458.11,116.904 461.684,113.57 461.682,109.168 C461.68,104.332 461.684,92.094 461.444,85 L518.444,85 C538.444,120 546.444,156 553.444,179 C560.444,202 585.444,218 606.444,232 C627.444,246 650.444,275 663.444,340 C676.444,405 693.444,524 612.444,524 L201.112,524 C120.112,524 137.112,405 150.112,340 C163.112,275 186.112,246 207.112,232 C228.112,218 253.112,202 260.112,179 C267.112,156 275.112,120 295.112,85 L352.112,85 C351.872,92.094 351.876,104.332 351.874,109.168 C351.872,113.57 355.446,116.904 359.84,117.136 L453.716,117.136" fill="#1A1919"/>
      <path d="M406.778,2 C585.718,2 722.776,54 729.444,111.334 C733.02,142.096 734.982,223.47 692.11,228.666 C648.11,234 574.77,179.846 564.11,150 C557.444,131.334 559.744,122.654 569.444,111.334 C574.566,105.36 580.78,100.26 583.19,96.104 C584.544,93.766 585.034,84.756 575.178,85.372 C546.97,87.136 454.688,89.024 406.778,89.95 C358.868,90.874 266.586,87.136 238.376,85.372 C228.522,84.756 229.012,93.766 230.366,96.104 C232.776,100.26 238.992,105.36 244.112,111.334 C253.814,122.654 256.112,131.334 249.446,150 C238.786,179.846 165.446,234 121.446,228.666 C78.576,223.47 80.536,142.096 84.112,111.334 C90.78,54 227.838,2 406.778,2" fill="#1A1919"/>
      <path d="M98.112,111 C27.112,134 3.112,189 10.112,261 C17.112,333 62.112,333 89.112,324 C116.112,315 129.262,269.152 99.112,239 C79.112,219 11.058,218.002 9.112,302 C7.458,373.43 97.112,416 146.112,389" fill-opacity="0" stroke="#1A1919" stroke-width="18"/>
    </g>
    <path d="M542.758,269.604 C542.758,344.706 481.88,405.584 406.778,405.584 C331.676,405.584 270.798,344.706 270.798,269.604 C270.798,194.504 331.676,133.624 406.778,133.624 C481.88,133.624 542.758,194.504 542.758,269.604" fill="#FFFFFE"/>
    <path d="M482.376,186.958 C481.958,196.338 474.014,203.602 464.634,203.184 C455.254,202.764 447.992,194.82 448.412,185.442 C448.83,176.062 456.772,168.798 466.154,169.216 C475.532,169.636 482.796,177.58 482.376,186.958" fill="#1A1919"/>
    <path d="M436.578,161.634 C440.464,170.18 436.688,180.26 428.144,184.148 C419.598,188.036 409.516,184.26 405.63,175.714 C401.742,167.168 405.518,157.088 414.064,153.2 C422.608,149.312 432.688,153.088 436.578,161.634" fill="#1A1919"/>
    <path d="M384.27,159.882 C391.616,165.728 392.834,176.424 386.988,183.77 C381.142,191.116 370.442,192.33 363.1,186.484 C355.752,180.638 354.538,169.942 360.384,162.596 C366.23,155.25 376.924,154.036 384.27,159.882" fill="#1A1919"/>
    <path d="M336.878,182.084 C346.08,183.956 352.022,192.93 350.15,202.13 C348.282,211.332 339.304,217.274 330.104,215.402 C320.904,213.532 314.962,204.556 316.834,195.356 C318.704,186.156 327.678,180.214 336.878,182.084" fill="#1A1919"/>
    <path d="M304.748,223.394 C313.794,220.882 323.166,226.176 325.678,235.222 C328.192,244.268 322.896,253.642 313.85,256.154 C304.804,258.666 295.434,253.37 292.918,244.326 C290.406,235.28 295.702,225.908 304.748,223.394" fill="#1A1919"/>
    <path d="M294.894,274.794 C301.81,268.446 312.564,268.904 318.912,275.822 C325.26,282.738 324.8,293.494 317.884,299.84 C310.968,306.188 300.214,305.728 293.864,298.812 C287.516,291.898 287.976,281.144 294.894,274.794" fill="#1A1919"/>
    <path d="M309.464,325.058 C312.744,316.26 322.532,311.784 331.33,315.062 C340.126,318.338 344.604,328.128 341.326,336.926 C338.048,345.724 328.26,350.198 319.46,346.922 C310.664,343.646 306.188,333.858 309.464,325.058" fill="#1A1919"/>
    <path d="M345.282,363.216 C344.208,353.89 350.892,345.454 360.218,344.376 C369.546,343.3 377.98,349.986 379.058,359.312 C380.136,368.64 373.448,377.072 364.12,378.154 C354.794,379.23 346.362,372.544 345.282,363.216" fill="#1A1919"/>
    <path d="M394.526,380.936 C389.33,373.116 391.456,362.564 399.272,357.366 C407.09,352.168 417.644,354.294 422.84,362.112 C428.038,369.93 425.914,380.484 418.094,385.682 C410.276,390.88 399.726,388.754 394.526,380.936" fill="#1A1919"/>
    <path d="M446.444,374.348 C438.262,369.744 435.362,359.378 439.966,351.194 C444.57,343.012 454.934,340.112 463.116,344.716 C471.298,349.32 474.2,359.686 469.596,367.87 C464.994,376.052 454.628,378.95 446.444,374.348" fill="#1A1919"/>
    <path d="M476.112,269.604 C476.112,307.898 445.072,338.938 406.778,338.938 C368.486,338.938 337.444,307.898 337.444,269.604 C337.444,231.312 368.486,200.27 406.778,200.27 C445.072,200.27 476.112,231.312 476.112,269.604" fill="#1A1919"/>
    <path d="M519.12,361.974 C519.12,361.974 488.342,338.888 485.974,314.026 C472.95,337.704 480.052,365.526 502.546,379.732 C507.282,374.996 519.12,361.974 519.12,361.974" fill="#1A1919"/>
  </g>
</svg>
